<?xml version="1.0" encoding="utf-8"?>
<!-- Generator: Adobe Illustrator 28.1.0, SVG Export Plug-In . SVG Version: 6.00 Build 0)  -->
<svg version="1.1" id="doubtful-businessman" xmlns="http://www.w3.org/2000/svg" xmlns:xlink="http://www.w3.org/1999/xlink"
	 x="0px" y="0px" viewBox="0 0 512 512" style="enable-background:new 0 0 512 512;" xml:space="preserve">
<style type="text/css">
	.st0{fill:#00A4FF;}
	.st1{clip-path:url(#SVGID_00000054262867541411923280000005749486990254067098_);}
	.st2{fill:none;stroke:#FFFFFF;stroke-width:4;stroke-miterlimit:10;}
	.st3{fill:none;}
	.st4{clip-path:url(#SVGID_00000152943705604409152550000012040180345867759290_);}
	.st5{fill:#ED9A72;}
	.st6{fill:#B86A55;}
	.st7{fill:#E9966E;}
	.st8{fill:#350313;}
	.st9{fill:#38101B;}
	.st10{fill:#3F3F3F;}
	.st11{fill:#E8E9EA;}
	.st12{fill:#577FFF;}
	.st13{fill:#D2D3D5;}
	.st14{fill:#595959;}
	.st15{fill:#D7645D;}
</style>
<rect x="41.4" y="153.9" class="st0" width="429.1" height="285.2"/>
<g>
	<defs>
		<rect id="SVGID_1_" x="41.4" y="153.9" width="429.1" height="285.2"/>
	</defs>
	<clipPath id="SVGID_00000061453284358566463400000005680441714761716609_">
		<use xlink:href="#SVGID_1_"  style="overflow:visible;"/>
	</clipPath>
	<g style="clip-path:url(#SVGID_00000061453284358566463400000005680441714761716609_);">
		<path class="st2" d="M42.4,247.6c0,0,93.6-104.6,188.3-78.2S417.9,267.3,470.6,273"/>
		<path class="st2" d="M145.3,133.9c0,0-38.8,31-34.4,139.1S87.2,516.9,87.2,516.9"/>
		<path class="st2" d="M41.4,519.6c0,0,157.9-188.2,269.9-207s159.2-180.9,159.2-180.9"/>
		<path class="st2" d="M271.1,129c0,0,60,145.9,84.5,222.2S468,433.3,468,433.3 M470.7,325.6c0,0-350,89.7-429.1,18.1"/>
		<rect x="41.4" y="131.6" class="st3" width="429.1" height="387.9"/>
	</g>
</g>
<g>
	<defs>
		<rect id="SVGID_00000162354323008674251680000011235259025500407229_" x="41.4" y="153.9" width="429.1" height="285.2"/>
	</defs>
	<clipPath id="SVGID_00000124849982339617363310000008074269650538279823_">
		<use xlink:href="#SVGID_00000162354323008674251680000011235259025500407229_"  style="overflow:visible;"/>
	</clipPath>
	<g style="clip-path:url(#SVGID_00000124849982339617363310000008074269650538279823_);">
		<path class="st5" d="M56.6,519.6h398c-19.2-95.6-36-150-36-150c-5-29.7-27.9-39.3-27.9-39.3l-54-16.8l-24.2-7.5l-0.4-0.1
			c-3.4-1-6.5-2.7-9.3-5c0,0-0.1-0.1-0.1-0.1c0,0-0.1-0.1-0.1-0.1c-0.3-0.2-0.6-0.5-0.9-0.7c-2.6-2.3-4.8-5.2-6.4-8.3
			c-1-2-1.8-4.1-2.3-6.3v0c-0.1-0.4-0.2-0.9-0.3-1.3c0-0.2-0.1-0.4-0.1-0.7c0-0.2-0.1-0.4-0.1-0.7c0-0.3-0.1-0.6-0.1-1
			c0-0.2,0-0.3,0-0.5c0-0.5-0.1-1-0.1-1.5c0-0.3,0-0.6,0-1v-38h-71v38c0,4.3-1,8.6-2.9,12.5c-1.6,3.2-3.7,6.1-6.4,8.5
			c-0.1,0.1-0.2,0.2-0.4,0.3l0,0l-0.1,0.1c-2.8,2.4-6,4.3-9.4,5.5c-0.3,0.1-0.5,0.2-0.8,0.3l-23.4,7.3l-55.2,17.2
			c-0.2,0.1-0.5,0.2-0.7,0.3c-21.6,10.5-29.2,39-29.2,39h-0.1C92.6,369.5,75.8,423.9,56.6,519.6z"/>
		<path class="st6" d="M265.2,281.1c-25.3-4.4-44.1-33.7-44.1-33.7s25.1-2.1,40.8-6.6h30.2v38c0,2.2,0.3,4.4,0.8,6.5l0,0
			C292.9,285.2,290.6,285.5,265.2,281.1z"/>
		<path class="st7" d="M196.5,159.7c1.6-0.3,3.2-0.3,4.7,0.1c5.5-38,28.4-66.5,55.7-66.5c27.4,0,50.3,28.7,55.8,66.8
			c1.8-0.6,3.8-0.8,5.8-0.4c8.5,1.7,13.3,13.2,10.8,25.8c-2.4,12.1-10.8,20.8-19,19.8c-8,29.8-18.9,52.7-39.6,56.6
			c-5.6,1-10.5-2.2-15-2.2c-4.4,0-9.7,3.8-13.4,2.5c-22.3-8-31.4-27-39-56.7c-7.8-0.1-15.4-8.4-17.6-19.9
			C183.1,172.9,188,161.4,196.5,159.7z"/>
		
			<ellipse transform="matrix(0.9919 -0.1268 0.1268 0.9919 -21.4767 26.2184)" class="st6" cx="195.3" cy="181.9" rx="5.4" ry="13.5"/>
		
			<ellipse transform="matrix(0.1268 -0.9919 0.9919 0.1268 97.8308 474.8535)" class="st6" cx="318.6" cy="181.9" rx="13.5" ry="5.4"/>
		<path class="st6" d="M312.6,160.1c0.6,3.8,1,7.5,1.2,11.3c0.2,3.8,0.2,7.6,0.1,11.4c-0.1,3.8-0.5,7.6-1,11.4
			c-0.5,3.8-1.4,7.5-2.7,11.1c0.3-3.8,0.5-7.6,0.7-11.3l0.2-5.6c0.1-1.9,0.2-3.8,0.2-5.6l0.5-11.3
			C312,167.7,312.3,163.9,312.6,160.1z M200.9,160.1c0.4,3.8,0.6,7.6,0.8,11.4l0.5,11.3c0,1.9,0.1,3.8,0.2,5.6l0.2,5.6
			c0.2,3.8,0.4,7.5,0.7,11.3c-1.3-3.6-2.2-7.3-2.7-11.1c-0.5-3.8-0.9-7.6-1-11.4c-0.1-3.8-0.1-7.6,0.1-11.4
			C199.8,167.7,200.2,163.9,200.9,160.1z"/>
		<path class="st8" d="M182.7,137.9c0-3.7,1.7-7.3,4.5-9.7c0-0.1,0.1-0.3,0.1-0.4c-5.4-4.4-6.2-12.3-1.8-17.6
			c2.1-2.6,5.1-4.2,8.4-4.6c-2.4-6.5,1-13.7,7.5-16c2.3-0.8,4.8-1,7.2-0.4c0-0.1,0-0.2,0-0.3c0-6.9,5.6-12.5,12.5-12.5
			c3.8,0,7.5,1.8,9.9,4.8c4.3-5.4,12.1-6.4,17.6-2.1c0.9,0.7,1.7,1.6,2.4,2.5c0.8,0,1.6,0,2.3,0c2.5-6.4,9.8-9.6,16.2-7.1
			c3.8,1.5,6.6,4.7,7.6,8.6c5.7-3.9,13.5-2.3,17.4,3.4c1.4,2.1,2.1,4.5,2.1,7c0,0.3,0,0.7,0,1c6.4-2.7,13.7,0.3,16.4,6.7
			c1.2,2.8,1.3,6,0.3,9c6.8,1,11.6,7.3,10.6,14.1c-0.1,0.8-0.3,1.7-0.6,2.5c4.4,4.8,4.3,12.2-0.2,16.9c0,0.3,0,0.5-0.1,0.8
			c4.8,5,4.6,12.9-0.4,17.7c-1,1-2.2,1.8-3.6,2.4c-3.4,10.5-7.6,15.2-7.6,15.2s0.2-6.1-0.3-14.5c-6.7-1.5-10.9-8.3-9.4-15
			c0.5-2.4,1.8-4.5,3.5-6.2c-3.5-3.4-4.7-8.6-3.1-13.2c-0.7-0.7-1.2-1.5-1.7-2.4c-5.6,4.1-13.4,2.8-17.5-2.7
			c-0.1-0.1-0.1-0.2-0.2-0.2c-4.9,2.3-10.7,1.2-14.4-2.7c-2.5,6.5-9.7,9.7-16.1,7.3c-0.6-0.2-1.2-0.5-1.8-0.8
			c-0.4,6.9-6.2,12.2-13.1,11.9c-4-0.2-7.7-2.4-9.9-5.8c-1.8,4.9-6.5,8.1-11.7,8.1c0,5.4-3.5,10.3-8.7,11.9c1.6,4.6,0.4,9.6-3,13
			c-1.3,7.5-2.2,13.5-2.2,13.5s-2.5-4.1-5.5-9.9c-0.4,0-0.8,0.1-1.2,0.1c-6.9,0-12.5-5.6-12.5-12.5c0-3.9,1.8-7.5,4.8-9.9
			c-0.2-0.7-0.3-1.3-0.4-2C184.3,145.1,182.7,141.6,182.7,137.9z"/>
		<path class="st9" d="M274.1,177.6c5,0,5-7.7,0-7.7C269.1,169.8,269.1,177.6,274.1,177.6z M221.5,177.6c5,0,5-7.7,0-7.7
			C216.5,169.8,216.5,177.6,221.5,177.6z"/>
		<path class="st9" d="M304,170.1c-3.3,0.6-6.7,1-10,1.1c-1.7,0.1-3.3,0.1-4.9,0.1c-1.6,0-3.2,0-4.7,0.2c-3.4,0.2-6.7,0.2-10.1-0.1
			c-3.4-0.3-6.7-0.9-10-1.9c3.2-1,6.5-1.7,9.9-2.2c3.3-0.5,6.6-0.7,9.8-0.9c1.8-0.1,3.5-0.1,5.3,0.1c1.7,0.2,3.4,0.4,5,0.7
			C297.6,167.8,300.9,168.7,304,170.1z M250.3,166.8c-1.6-0.8-3.3-1.5-4.9-2.1c-1.6-0.6-3.2-1.1-4.9-1.5c-6.5-1.6-13.2-1.6-19.6,0
			c-3.3,0.8-6.7,1.8-10.2,2.9c2.4-2.9,5.5-5.2,8.9-6.7c3.5-1.7,7.3-2.6,11.2-2.6c3.9,0,7.7,0.9,11.2,2.6c1.7,0.8,3.3,1.9,4.8,3.1
			C248.1,163.8,249.4,165.2,250.3,166.8z M229.5,171.3c-2.7,0.2-5.4,0.3-8,0.1c-1.3,0-2.6-0.1-3.8,0c-1.3,0-2.6,0.2-3.9,0.6
			c0.8-1.2,2.1-2.1,3.5-2.6c1.4-0.5,2.8-0.7,4.3-0.6c1.4,0,2.8,0.2,4.2,0.6C227.1,169.9,228.3,170.5,229.5,171.3z"/>
		<path class="st10" d="M57.3,519.6h398.1c-19.2-95.9-36.1-150.4-36.1-150.4c-5-29.7-27.9-39.3-27.9-39.3l-56-17.4h0l-22.5-7
			l-0.3,0.5l-12.4,18.6l-5.2,7.7l-7.4,11.1l-4.4,6.6l-12.2,18.3l-12.1,18.2l-12.6-18l-13.9-19.9l-7.1-10.1l-6.3-9l-7-10v0l-9.7-13.9
			l-0.1-0.1l-24.1,7.5h0l-54.5,17c-0.5,0.2-1,0.5-1.4,0.7c-21,10.8-28.5,38.6-28.5,38.6h-0.1C93.4,369.2,76.5,423.7,57.3,519.6z"/>
		<polygon class="st11" points="303,299.5 291.5,399 257.1,465.3 212.5,373.9 211.5,299.5 257.2,311.6 		"/>
		<polygon class="st12" points="266.1,343.3 283.5,434.9 257.1,465.3 238.6,443.8 248.9,340.5 		"/>
		<polygon class="st13" points="300,289.1 302.9,299.6 284.5,352 257.1,311.6 		"/>
		<polygon class="st13" points="214.4,289.1 211.4,299.6 229.9,352 257.2,311.6 		"/>
		<path class="st12" d="M275.2,338.3c0,0-19.8,16.1-35.2-1.3l17.2-25.3L275.2,338.3z"/>
		<path class="st14" d="M303,299.5l33.5,13.3l10.1,27.6l-30.7,7.1l20.5,26.4l-79.4,91.4C257.1,465.3,285.6,373.9,303,299.5z
			 M211.5,299.5L178,312.8l-10.1,27.6l30.7,7.1L178,373.8l79.2,91.4C257.1,465.3,228.8,373.9,211.5,299.5z"/>
		<polygon class="st14" points="393.5,467.3 393.6,519.6 388.4,467.6 		"/>
		<polygon class="st14" points="121.9,467.5 116.7,519.6 116.7,467.3 		"/>
		<path class="st9" d="M256.2,239.9l0.2,0c1-0.1,2.1,0.1,3,0.7c34.9,24.4,52.5-57.8,52.5-57.8c1.3,46.9-20.2,78.6-40.9,82.4
			c-5.6,1-10.5-2.2-15-2.2c-4.4,0-9.5,3.2-13.4,2.4c-23.1-4.6-44.4-46.2-40.4-88.9c-4.1,44.5,43.6,73.2,48.8,65.5
			C251.9,240.7,254.6,240.1,256.2,239.9z"/>
		<path class="st9" d="M263.4,222c0,0,2.8,9.3,0,14.4s-9.7,4.4-11.2,0c-1.7-5.1,0.8-15.6,0.8-15.6L263.4,222z"/>
		<path class="st15" d="M279.4,217.8c0,0-11.6,15.1-24.9,13s-19.7-15.3-19.7-15.3L279.4,217.8z"/>
		<path class="st8" d="M256.8,201c3,1.6,6.4,2.6,9.8,3c1.4,0.1,2.8,0.2,4.2,0.2c0.4,0,0.7,0,1,0c0.5,0,1.1,0.1,1.7,0.1
			c1.1,0.1,2.2,0.3,3.3,0.6c2.1,0.5,4.1,1.4,6,2.4c1.8,1,3.5,2.3,5,3.7c1.5,1.5,2.8,3.1,3.8,5c0.5,0.9,1,2,1.3,3
			c0.2,0.5,0.3,1.1,0.4,1.6c0,0.3,0,0.6,0,0.9c0,0.3-0.1,0.6-0.2,0.8c-0.2-0.2-0.4-0.3-0.7-0.4c-0.2-0.1-0.5-0.2-0.7-0.3
			c-0.5-0.2-0.9-0.3-1.4-0.5c-0.5-0.1-0.9-0.3-1.3-0.4c-0.4-0.1-0.9-0.3-1.3-0.4l-5-1.5c-3.2-1-6.2-1.8-9-2.6
			c-0.7-0.1-1.4-0.4-2.1-0.5c-0.3-0.1-0.7-0.1-1-0.2c-0.6-0.1-1.1-0.2-1.7-0.4c-2.2-0.5-4.4-1.5-6.3-2.8c-1.9-1.3-3.5-3-4.6-5
			c-0.6-1-1-2-1.2-3.1C256.7,203.2,256.6,202.1,256.8,201z"/>
		<path class="st8" d="M258,201c0.2,1.1,0.1,2.2-0.2,3.3c-0.3,1.1-0.7,2.1-1.2,3.1c-1.1,2-2.7,3.7-4.6,5c-1.9,1.3-4,2.3-6.3,2.8
			c-0.5,0.1-1.1,0.2-1.7,0.4c-0.4,0.1-0.7,0.2-1,0.2c-0.7,0.1-1.4,0.4-2.1,0.5c-2.8,0.8-5.8,1.6-9,2.6l-5,1.5
			c-0.5,0.1-0.9,0.3-1.3,0.4c-0.5,0.1-0.9,0.3-1.3,0.4c-0.5,0.1-0.9,0.3-1.4,0.5c-0.2,0.1-0.4,0.2-0.7,0.3c-0.2,0.1-0.5,0.3-0.7,0.4
			c-0.1-0.3-0.2-0.6-0.2-0.8c0-0.3,0-0.6,0-0.9c0.1-0.6,0.2-1.1,0.4-1.6c0.3-1,0.8-2,1.3-3c1-1.8,2.3-3.5,3.8-5
			c1.5-1.5,3.2-2.7,5-3.7c1.9-1.1,3.9-1.9,6-2.4c1.1-0.3,2.2-0.5,3.3-0.6c0.6,0,1.1-0.1,1.7-0.1c0.3,0,0.7,0,1,0
			c1.4,0,2.8-0.1,4.2-0.2C251.6,203.6,254.9,202.6,258,201z"/>
		<path class="st6" d="M244.5,199.4c3.5,3.6,8.2,5.8,13.1,6.3c-0.2,0-0.3,0-0.5,0.1h0.9c-0.2,0-0.3,0-0.5-0.1
			c4.9-0.5,9.5-2.6,13-6.1L244.5,199.4z"/>
	</g>
</g>
<path class="st7" d="M196.1,159.1c1.6-0.3,3.2-0.3,4.7,0.1c5.5-38,28.4-66.5,55.7-66.5c27.4,0,50.3,28.7,55.8,66.8
	c1.8-0.6,3.8-0.8,5.8-0.4c8.5,1.7,13.3,13.2,10.8,25.8c-2.4,12.1-10.8,20.8-19,19.8c-8,29.8-18.9,52.7-39.6,56.6
	c-5.6,1-10.5-2.2-15-2.2c-4.4,0-9.7,3.8-13.4,2.5c-22.3-8-31.4-27-39-56.7c-7.8-0.1-15.4-8.4-17.6-19.9
	C182.8,172.4,187.7,160.8,196.1,159.1z"/>
<ellipse transform="matrix(0.9919 -0.1268 0.1268 0.9919 -21.4078 26.1748)" class="st6" cx="195" cy="181.3" rx="5.4" ry="13.5"/>
<ellipse transform="matrix(0.1268 -0.9919 0.9919 0.1268 98.1203 474.0563)" class="st6" cx="318.3" cy="181.3" rx="13.5" ry="5.4"/>
<path class="st6" d="M312.3,159.6c0.6,3.8,1,7.5,1.2,11.3c0.2,3.8,0.2,7.6,0.1,11.4c-0.1,3.8-0.5,7.6-1,11.4
	c-0.5,3.8-1.4,7.5-2.7,11.1c0.3-3.8,0.5-7.6,0.7-11.3l0.2-5.6c0.1-1.9,0.2-3.8,0.2-5.6l0.5-11.3
	C311.7,167.1,311.9,163.4,312.3,159.6z M200.5,159.6c0.4,3.8,0.6,7.6,0.8,11.4l0.5,11.3c0,1.9,0.1,3.8,0.2,5.6l0.2,5.6
	c0.2,3.8,0.4,7.5,0.7,11.3c-1.3-3.6-2.2-7.3-2.7-11.1c-0.5-3.8-0.9-7.6-1-11.4c-0.1-3.8-0.1-7.6,0.1-11.4
	C199.5,167.1,199.9,163.3,200.5,159.6z"/>
<path class="st8" d="M182.4,137.4c0-3.7,1.7-7.3,4.5-9.7c0-0.1,0.1-0.3,0.1-0.4c-5.4-4.4-6.2-12.3-1.8-17.6c2.1-2.6,5.1-4.2,8.4-4.6
	c-2.4-6.5,1-13.7,7.5-16c2.3-0.8,4.8-1,7.2-0.4c0-0.1,0-0.2,0-0.3c0-6.9,5.6-12.5,12.5-12.5c3.8,0,7.5,1.8,9.9,4.8
	c4.3-5.4,12.1-6.4,17.6-2.1c0.9,0.7,1.7,1.6,2.4,2.5c0.8,0,1.6,0,2.3,0c2.5-6.4,9.8-9.6,16.2-7.1c3.8,1.5,6.6,4.7,7.6,8.6
	c5.7-3.9,13.5-2.3,17.4,3.4c1.4,2.1,2.1,4.5,2.1,7c0,0.3,0,0.7,0,1c6.4-2.7,13.7,0.3,16.4,6.7c1.2,2.8,1.3,6,0.3,9
	c6.8,1,11.6,7.3,10.6,14.1c-0.1,0.8-0.3,1.7-0.6,2.5c4.4,4.8,4.3,12.2-0.2,16.9c0,0.3,0,0.5-0.1,0.8c4.8,5,4.6,12.9-0.4,17.7
	c-1,1-2.2,1.8-3.6,2.4c-3.4,10.5-7.6,15.2-7.6,15.2s0.2-6.1-0.3-14.5c-6.7-1.5-10.9-8.3-9.4-15c0.5-2.4,1.8-4.5,3.5-6.2
	c-3.5-3.4-4.7-8.6-3.1-13.2c-0.7-0.7-1.2-1.5-1.7-2.4c-5.6,4.1-13.4,2.8-17.5-2.7c-0.1-0.1-0.1-0.2-0.2-0.2
	c-4.9,2.3-10.7,1.2-14.4-2.7c-2.5,6.5-9.7,9.7-16.1,7.3c-0.6-0.2-1.2-0.5-1.8-0.8c-0.4,6.9-6.2,12.2-13.1,11.9
	c-4-0.2-7.7-2.4-9.9-5.8c-1.8,4.9-6.5,8.1-11.7,8.1c0,5.4-3.5,10.3-8.7,11.9c1.6,4.6,0.4,9.6-3,13c-1.3,7.5-2.2,13.5-2.2,13.5
	s-2.5-4.1-5.5-9.9c-0.4,0-0.8,0.1-1.2,0.1c-6.9,0-12.5-5.6-12.5-12.5c0-3.9,1.8-7.5,4.8-9.9c-0.2-0.7-0.3-1.3-0.4-2
	C184,144.5,182.4,141,182.4,137.4z"/>
<path class="st9" d="M273.8,177c5,0,5-7.7,0-7.7C268.8,169.3,268.8,177,273.8,177z M221.2,177c5,0,5-7.7,0-7.7
	C216.2,169.3,216.2,177,221.2,177z"/>
<path class="st9" d="M303.7,169.5c-3.3,0.6-6.7,1-10,1.1c-1.7,0.1-3.3,0.1-4.9,0.1c-1.6,0-3.2,0-4.7,0.2c-3.4,0.2-6.7,0.2-10.1-0.1
	c-3.4-0.3-6.7-0.9-10-1.9c3.2-1,6.5-1.7,9.9-2.2c3.3-0.5,6.6-0.7,9.8-0.9c1.8-0.1,3.5-0.1,5.3,0.1c1.7,0.2,3.4,0.4,5,0.7
	C297.3,167.2,300.6,168.2,303.7,169.5z M250,166.3c-1.6-0.8-3.3-1.5-4.9-2.1c-1.6-0.6-3.2-1.1-4.9-1.5c-6.5-1.6-13.2-1.6-19.6,0
	c-3.3,0.8-6.7,1.8-10.2,2.9c2.4-2.9,5.5-5.2,8.9-6.7c3.5-1.7,7.3-2.6,11.2-2.6c3.9,0,7.7,0.9,11.2,2.6c1.7,0.8,3.3,1.9,4.8,3.1
	C247.8,163.2,249.1,164.7,250,166.3z M229.2,170.7c-2.7,0.2-5.4,0.3-8,0.1c-1.3,0-2.6-0.1-3.8,0c-1.3,0-2.6,0.2-3.9,0.6
	c0.8-1.2,2.1-2.1,3.5-2.6c1.4-0.5,2.8-0.7,4.3-0.6c1.4,0,2.8,0.2,4.2,0.6C226.7,169.3,228,169.9,229.2,170.7z M255.9,239.3l0.2,0
	c1-0.1,2.1,0.1,3,0.7c34.9,24.4,52.5-57.8,52.5-57.8c1.3,46.9-20.2,78.6-40.9,82.4c-5.6,1-10.5-2.2-15-2.2c-4.4,0-9.5,3.2-13.4,2.4
	c-23.1-4.6-44.4-46.2-40.4-88.9c-4.1,44.5,43.6,73.2,48.8,65.5C251.6,240.2,254.3,239.5,255.9,239.3z"/>
<path class="st9" d="M263.1,221.4c0,0,2.8,9.3,0,14.4s-9.7,4.4-11.2,0c-1.7-5.1,0.8-15.6,0.8-15.6L263.1,221.4z"/>
<path class="st15" d="M279.1,217.2c0,0-11.6,15.1-24.9,13s-19.7-15.3-19.7-15.3L279.1,217.2z"/>
<path class="st8" d="M256.5,200.4c3,1.6,6.4,2.6,9.8,3c1.4,0.1,2.8,0.2,4.2,0.2c0.4,0,0.7,0,1,0c0.5,0,1.1,0.1,1.7,0.1
	c1.1,0.1,2.2,0.3,3.3,0.6c2.1,0.5,4.1,1.4,6,2.4c1.8,1,3.5,2.3,5,3.7c1.5,1.5,2.8,3.1,3.8,5c0.5,0.9,1,2,1.3,3
	c0.2,0.5,0.3,1.1,0.4,1.6c0,0.3,0,0.6,0,0.9c0,0.3-0.1,0.6-0.2,0.8c-0.2-0.2-0.4-0.3-0.7-0.4c-0.2-0.1-0.5-0.2-0.7-0.3
	c-0.5-0.2-0.9-0.3-1.4-0.5c-0.5-0.1-0.9-0.3-1.3-0.4c-0.4-0.1-0.9-0.3-1.3-0.4l-5-1.5c-3.2-1-6.2-1.8-9-2.6
	c-0.7-0.1-1.4-0.4-2.1-0.5c-0.3-0.1-0.7-0.1-1-0.2c-0.6-0.1-1.1-0.2-1.7-0.4c-2.2-0.5-4.4-1.5-6.3-2.8c-1.9-1.3-3.5-3-4.6-5
	c-0.6-1-1-2-1.2-3.1C256.4,202.6,256.3,201.5,256.5,200.4z"/>
<path class="st8" d="M257.6,200.4c0.2,1.1,0.1,2.2-0.2,3.3c-0.3,1.1-0.7,2.1-1.2,3.1c-1.1,2-2.7,3.7-4.6,5c-1.9,1.3-4,2.3-6.3,2.8
	c-0.5,0.1-1.1,0.2-1.7,0.4c-0.4,0.1-0.7,0.2-1,0.2c-0.7,0.1-1.4,0.4-2.1,0.5c-2.8,0.8-5.8,1.6-9,2.6l-5,1.5
	c-0.5,0.1-0.9,0.3-1.3,0.4c-0.5,0.1-0.9,0.3-1.3,0.4c-0.5,0.1-0.9,0.3-1.4,0.5c-0.2,0.1-0.4,0.2-0.7,0.3c-0.2,0.1-0.5,0.3-0.7,0.4
	c-0.1-0.3-0.2-0.6-0.2-0.8c0-0.3,0-0.6,0-0.9c0.1-0.6,0.2-1.1,0.4-1.6c0.3-1,0.8-2,1.3-3c1-1.8,2.3-3.5,3.8-5c1.5-1.5,3.2-2.7,5-3.7
	c1.9-1.1,3.9-1.9,6-2.4c1.1-0.3,2.2-0.5,3.3-0.6c0.6,0,1.1-0.1,1.7-0.1c0.3,0,0.7,0,1,0c1.4,0,2.8-0.1,4.2-0.2
	C251.3,203,254.6,202,257.6,200.4z"/>
<path class="st6" d="M244.2,198.8c3.5,3.6,8.2,5.8,13.1,6.3c-0.2,0-0.3,0-0.5,0.1h0.9c-0.2,0-0.3,0-0.5-0.1c4.9-0.5,9.5-2.6,13-6.1
	L244.2,198.8z"/>
</svg>
